<mxfile host="app.diagrams.net" modified="2024-01-31T08:27:43.172Z" agent="Mozilla/5.0 (Windows NT 10.0; Win64; x64) AppleWebKit/537.36 (KHTML, like Gecko) Chrome/120.0.0.0 Safari/537.36" version="23.0.2" etag="cAPCtUOhBUf6j0W_BTn8" type="github">
  <diagram name="Page-1" id="JsIo6-Pu_DdENNmZ6h5k">
    <mxGraphModel>
      <root>
        <mxCell id="0" />
        <mxCell id="1" parent="0" />
      </root>
    </mxGraphModel>
  </diagram>
</mxfile>
